<mxfile host="app.diagrams.net" agent="Mozilla/5.0 (Windows NT 10.0; Win64; x64) AppleWebKit/537.36 (KHTML, like Gecko) Chrome/128.0.0.0 Safari/537.36 Edg/128.0.0.0" version="24.7.7">
  <diagram name="Page-1" id="YWk7_IZamLLMoI5iWTO9">
    <mxGraphModel grid="0" page="0" gridSize="10" guides="1" tooltips="1" connect="1" arrows="1" fold="1" pageScale="1" pageWidth="850" pageHeight="1100" math="0" shadow="0">
      <root>
        <mxCell id="0" />
        <mxCell id="1" parent="0" />
        <mxCell id="9V2KDq_AXjThBjVVLodt-1" value="Hệ thống&lt;div&gt;&amp;nbsp;Website trưng bày và trao đổi tác phẩm nghệ thuật&lt;/div&gt;" style="ellipse;whiteSpace=wrap;html=1;" vertex="1" parent="1">
          <mxGeometry x="180" y="240" width="300" height="160" as="geometry" />
        </mxCell>
        <mxCell id="9V2KDq_AXjThBjVVLodt-2" value="Hội viên" style="rounded=1;whiteSpace=wrap;html=1;" vertex="1" parent="1">
          <mxGeometry x="-60" y="290" width="120" height="60" as="geometry" />
        </mxCell>
        <mxCell id="9V2KDq_AXjThBjVVLodt-3" value="Người quản lý" style="rounded=1;whiteSpace=wrap;html=1;" vertex="1" parent="1">
          <mxGeometry x="630" y="290" width="120" height="60" as="geometry" />
        </mxCell>
        <mxCell id="9V2KDq_AXjThBjVVLodt-5" value="" style="endArrow=classic;html=1;rounded=0;exitX=1;exitY=0.25;exitDx=0;exitDy=0;entryX=0.008;entryY=0.407;entryDx=0;entryDy=0;entryPerimeter=0;" edge="1" parent="1" source="9V2KDq_AXjThBjVVLodt-2" target="9V2KDq_AXjThBjVVLodt-1">
          <mxGeometry width="50" height="50" relative="1" as="geometry">
            <mxPoint x="400" y="320" as="sourcePoint" />
            <mxPoint x="450" y="270" as="targetPoint" />
          </mxGeometry>
        </mxCell>
        <mxCell id="9V2KDq_AXjThBjVVLodt-8" value="" style="endArrow=classic;html=1;rounded=0;entryX=1;entryY=0.75;entryDx=0;entryDy=0;exitX=0.003;exitY=0.592;exitDx=0;exitDy=0;exitPerimeter=0;" edge="1" parent="1" source="9V2KDq_AXjThBjVVLodt-1" target="9V2KDq_AXjThBjVVLodt-2">
          <mxGeometry width="50" height="50" relative="1" as="geometry">
            <mxPoint x="170" y="331" as="sourcePoint" />
            <mxPoint x="100" y="450" as="targetPoint" />
          </mxGeometry>
        </mxCell>
        <mxCell id="9V2KDq_AXjThBjVVLodt-9" value="" style="endArrow=classic;html=1;rounded=0;exitX=0;exitY=0.25;exitDx=0;exitDy=0;entryX=0.987;entryY=0.4;entryDx=0;entryDy=0;entryPerimeter=0;" edge="1" parent="1" source="9V2KDq_AXjThBjVVLodt-3" target="9V2KDq_AXjThBjVVLodt-1">
          <mxGeometry width="50" height="50" relative="1" as="geometry">
            <mxPoint x="190" y="343" as="sourcePoint" />
            <mxPoint x="50" y="345" as="targetPoint" />
          </mxGeometry>
        </mxCell>
        <mxCell id="9V2KDq_AXjThBjVVLodt-10" value="" style="endArrow=classic;html=1;rounded=0;entryX=0;entryY=0.75;entryDx=0;entryDy=0;exitX=0.99;exitY=0.585;exitDx=0;exitDy=0;exitPerimeter=0;" edge="1" parent="1" source="9V2KDq_AXjThBjVVLodt-1" target="9V2KDq_AXjThBjVVLodt-3">
          <mxGeometry width="50" height="50" relative="1" as="geometry">
            <mxPoint x="50" y="315" as="sourcePoint" />
            <mxPoint x="192" y="327" as="targetPoint" />
          </mxGeometry>
        </mxCell>
        <mxCell id="9V2KDq_AXjThBjVVLodt-11" value="Admin" style="rounded=1;whiteSpace=wrap;html=1;" vertex="1" parent="1">
          <mxGeometry x="270" y="80" width="120" height="60" as="geometry" />
        </mxCell>
        <mxCell id="9V2KDq_AXjThBjVVLodt-12" value="" style="endArrow=classic;html=1;rounded=0;exitX=0.25;exitY=1;exitDx=0;exitDy=0;entryX=0.405;entryY=0.007;entryDx=0;entryDy=0;entryPerimeter=0;" edge="1" parent="1" source="9V2KDq_AXjThBjVVLodt-11" target="9V2KDq_AXjThBjVVLodt-1">
          <mxGeometry width="50" height="50" relative="1" as="geometry">
            <mxPoint x="50" y="315" as="sourcePoint" />
            <mxPoint x="192" y="327" as="targetPoint" />
          </mxGeometry>
        </mxCell>
        <mxCell id="9V2KDq_AXjThBjVVLodt-13" value="" style="endArrow=classic;html=1;rounded=0;exitX=0.6;exitY=0;exitDx=0;exitDy=0;exitPerimeter=0;entryX=0.75;entryY=1;entryDx=0;entryDy=0;" edge="1" parent="1" source="9V2KDq_AXjThBjVVLodt-1" target="9V2KDq_AXjThBjVVLodt-11">
          <mxGeometry width="50" height="50" relative="1" as="geometry">
            <mxPoint x="190" y="343" as="sourcePoint" />
            <mxPoint x="50" y="345" as="targetPoint" />
          </mxGeometry>
        </mxCell>
        <mxCell id="9V2KDq_AXjThBjVVLodt-15" value="(1)" style="text;html=1;align=center;verticalAlign=middle;resizable=0;points=[];autosize=1;strokeColor=none;fillColor=none;" vertex="1" parent="1">
          <mxGeometry x="100" y="280" width="40" height="30" as="geometry" />
        </mxCell>
        <mxCell id="9V2KDq_AXjThBjVVLodt-17" value="(2)" style="text;html=1;align=center;verticalAlign=middle;resizable=0;points=[];autosize=1;strokeColor=none;fillColor=none;" vertex="1" parent="1">
          <mxGeometry x="100" y="340" width="40" height="30" as="geometry" />
        </mxCell>
        <mxCell id="9V2KDq_AXjThBjVVLodt-18" value="(3)" style="text;html=1;align=center;verticalAlign=middle;resizable=0;points=[];autosize=1;strokeColor=none;fillColor=none;" vertex="1" parent="1">
          <mxGeometry x="533" y="276" width="40" height="30" as="geometry" />
        </mxCell>
        <mxCell id="9V2KDq_AXjThBjVVLodt-19" value="(4)" style="text;html=1;align=center;verticalAlign=middle;resizable=0;points=[];autosize=1;strokeColor=none;fillColor=none;" vertex="1" parent="1">
          <mxGeometry x="535" y="333" width="40" height="30" as="geometry" />
        </mxCell>
        <mxCell id="9V2KDq_AXjThBjVVLodt-20" value="(6)" style="text;html=1;align=center;verticalAlign=middle;resizable=0;points=[];autosize=1;strokeColor=none;fillColor=none;" vertex="1" parent="1">
          <mxGeometry x="360" y="180" width="40" height="30" as="geometry" />
        </mxCell>
        <mxCell id="9V2KDq_AXjThBjVVLodt-21" value="(5)" style="text;html=1;align=center;verticalAlign=middle;resizable=0;points=[];autosize=1;strokeColor=none;fillColor=none;" vertex="1" parent="1">
          <mxGeometry x="260" y="170" width="40" height="30" as="geometry" />
        </mxCell>
      </root>
    </mxGraphModel>
  </diagram>
</mxfile>
